<svg xmlns="http://www.w3.org/2000/svg" xmlns:xlink="http://www.w3.org/1999/xlink" width="100px" zoomAndPan="magnify" viewBox="0 0 1296 1223.999942" height="100px" preserveAspectRatio="xMidYMid meet" version="1.0"><defs><clipPath id="34f9527b2b"><path d="M 0 0 L 1285.5 0 L 1285.5 1224 L 0 1224 Z M 0 0 " clip-rule="nonzero"/></clipPath></defs><rect x="-129.6" width="1555.2" fill="#ffffff" y="-122.399994" height="1468.79993" fill-opacity="1"/><rect x="-129.6" width="1555.2" fill="#ffffff" y="-122.399994" height="1468.79993" fill-opacity="1"/><rect x="-129.6" width="1555.2" fill="#ffffff" y="-122.399994" height="1468.79993" fill-opacity="1"/><g clip-path="url(#34f9527b2b)"><path fill="#ff2626" d="M 1263.335938 409.121094 C 1193.789062 153.035156 983.390625 0.140625 700.496094 0.140625 L 0.0078125 0.140625 L 13.828125 31.8125 C 73.195312 167.878906 207.523438 255.847656 356.023438 255.886719 L 546.765625 255.886719 L 548.328125 255.847656 C 555.574219 255.324219 582.363281 253.699219 622.546875 253.699219 C 661.1875 253.699219 700.5625 255.21875 739.429688 258.199219 L 743.246094 258.488281 C 892.066406 270.199219 1095.960938 309.101562 1221.957031 427.707031 L 1223.574219 429.214844 C 1224.230469 429.847656 1224.898438 430.445312 1225.523438 431.097656 L 1285.488281 490.804688 Z M 1282.523438 704.265625 L 1282.363281 706.71875 C 1244.523438 1025.800781 1019.171875 1223.992188 694.257812 1223.992188 L 247.367188 1223.992188 L 247.367188 619.90625 L 269.976562 619.90625 C 400.8125 619.90625 507.25 726.335938 507.25 857.152344 L 507.25 964.109375 L 705.167969 964.109375 C 802.652344 964.109375 884.734375 932.105469 942.589844 871.539062 C 1001.457031 809.894531 1032.566406 720.804688 1032.566406 613.90625 L 1032.566406 610.234375 C 1032.566406 527.460938 1014.363281 456.09375 978.449219 398.070312 L 944.925781 343.917969 L 1005.101562 364.800781 C 1079.761719 390.703125 1140.328125 425.199219 1185.09375 467.375 C 1250.515625 528.984375 1283.296875 608.675781 1282.523438 704.265625 " fill-opacity="1" fill-rule="nonzero"/></g></svg>